<?xml version="1.0" encoding="UTF-8"?>
<svg  xmlns="http://www.w3.org/2000/svg" xmlns:xlink="http://www.w3.org/1999/xlink" viewBox="-42.8202042942663, -49.9999999999999, 513.842451531196, 600" >

<globalCoordinateSystem srsName="http://purl.org/crs/84" transform="matrix(1,0,0,-1,0,0)" />

<g id="areas">
 <image xlink:href="https://www.jma.go.jp/bosai/rain/const/map/border_a00.png" x="0" y="0" width="940" height="783" preserveAspectRatio="none" xlink:title="image"  transform="matrix(0.043008612164925145,0,0,0.03211857078160707,114.79317743779237,-46.570190785510924)" id="a00" display="none" />
 <image xlink:href="https://www.jma.go.jp/bosai/rain/const/map/border_a01.png" x="0" y="0" width="940" height="783" preserveAspectRatio="none" xlink:title="image"  transform="matrix(0.006522479438560515,0,0,0.005749445139371329,126.86173958226937,-30.66751000130284)" id="a01" display="none" />
 <image xlink:href="https://www.jma.go.jp/bosai/rain/const/map/border_a02.png" x="0" y="0" width="940" height="783" preserveAspectRatio="none" xlink:title="image"  transform="matrix(0.006997661324941218,-6.7385485904022936e-18,0,0.005747360197290267,129.67549885960605,-37.084808015447734)" id="a02" display="none" />
 <image xlink:href="https://www.jma.go.jp/bosai/rain/const/map/border_a03.png" x="0" y="0" width="940" height="783" preserveAspectRatio="none" xlink:title="image"  transform="matrix(0.006391697710129704,0,6.613658618122892e-17,0.005729793947394332,126.90924064213543,-28.326834813483526)" id="a03" display="none" />
 <image xlink:href="https://www.jma.go.jp/bosai/rain/const/map/border_a04.png" x="0" y="0" width="940" height="783" preserveAspectRatio="none" xlink:title="image"  transform="matrix(0.007918251285353275,0,-9.500723533619336e-18,0.005740460320417401,140.81392306920768,-45.74731283760209)" id="a04" display="none" />
 <image xlink:href="https://www.jma.go.jp/bosai/rain/const/map/border_a05.png" x="0" y="0" width="940" height="783" preserveAspectRatio="none" xlink:title="image"  transform="matrix(0.007943479829458734,0,0,0.005745856998229447,138.55461730499,-45.95978965400205)" id="a05" display="none" />
 <image xlink:href="https://www.jma.go.jp/bosai/rain/const/map/border_a06.png" x="0" y="0" width="940" height="783" preserveAspectRatio="none" xlink:title="image"  transform="matrix(0.0078015775585408564,-2.055625605894603e-17,-2.055625605894603e-17,0.00574503751740208,137.61090157610377,-44.832802832935194)" id="a06" display="none" />
 <image xlink:href="https://www.jma.go.jp/bosai/rain/const/map/border_a07.png" x="0" y="0" width="940" height="783" preserveAspectRatio="none" xlink:title="image"  transform="matrix(0.007245480239834183,0,-6.048937755805046e-18,0.005749059652198699,135.6607995900566,-39.83838426520824)" id="a07" display="none" />
 <image xlink:href="https://www.jma.go.jp/bosai/rain/const/map/border_a08.png" x="0" y="0" width="940" height="783" preserveAspectRatio="none" xlink:title="image"  transform="matrix(0.007131471744818306,0,3.398632808774397e-18,0.005750163556412769,133.7888033630907,-38.5821509083874)" id="a08" display="none" />
 <image xlink:href="https://www.jma.go.jp/bosai/rain/const/map/border_a09.png" x="0" y="0" width="940" height="783" preserveAspectRatio="none" xlink:title="image"  transform="matrix(0.007035020388680146,0,1.2846435399834727e-17,0.005744070921622489,136.6606435411061,-37.58098463808038)" id="a09" display="none" />
 <image xlink:href="https://www.jma.go.jp/bosai/rain/const/map/border_a10.png" x="0" y="0" width="940" height="783" preserveAspectRatio="none" xlink:title="image"  transform="matrix(0.006981010681280973,0,-2.551578930311684e-17,0.00574633022744719,132.3474404005796,-36.916731068421335)" id="a10" display="none" />
 <image xlink:href="https://www.jma.go.jp/bosai/rain/const/map/border_a11.png" x="0" y="0" width="940" height="783" preserveAspectRatio="none" xlink:title="image"  transform="matrix(0.007083722615943058,0,-2.166724116621495e-17,0.005744296678805421,135.63928060573195,-38.08367472812808)" id="a11" display="none" />
 <image xlink:href="https://www.jma.go.jp/bosai/rain/const/map/border_a12.png" x="0" y="0" width="940" height="783" preserveAspectRatio="none" xlink:title="image"  transform="matrix(0.006872990850465372,0,0,0.005749552866250196,127.39206817603198,-35.6683374056983)" id="a12" display="none" />
 <image xlink:href="https://www.jma.go.jp/bosai/rain/const/map/border_a13.png" x="0" y="0" width="940" height="783" preserveAspectRatio="none" xlink:title="image"  transform="matrix(0.0067107672595410695,0,-4.8263865810165266e-17,0.00574223630389149,127.95505610390467,-33.49739999265797)" id="a13" display="none" />
 <image xlink:href="https://www.jma.go.jp/bosai/rain/const/map/border_a14.png" x="0" y="0" width="940" height="783" preserveAspectRatio="none" xlink:title="image"  transform="matrix(0.006400995479988583,0,2.503928432992144e-18,0.005741696763782221,125.40986966644365,-28.49610903010424)" id="a14" display="none" />
 <image xlink:href="https://www.jma.go.jp/bosai/rain/const/map/border_a15.png" x="0" y="0" width="940" height="783" preserveAspectRatio="none" xlink:title="image"  transform="matrix(0.006314554398550536,0,-7.316086313386955e-17,0.005738378349919692,121.6089036260993,-26.831718197006293)" id="a15" display="none" />
 <image xlink:href="https://www.jma.go.jp/bosai/rain/const/map/border_a16.png" x="0" y="0" width="940" height="783" preserveAspectRatio="none" xlink:title="image"  transform="matrix(0.00690272398720993,0,-1.6679293575576492e-17,0.005743468265891122,130.46318797224583,-36.000463961961024)" id="a16" display="none" />
 <image xlink:href="https://www.jma.go.jp/bosai/rain/const/map/border_a17.png" x="0" y="0" width="940" height="783" preserveAspectRatio="none" xlink:title="image"  transform="matrix(0.007487502868422322,-7.561299349753893e-18,-3.0245197399015574e-17,0.005741488806462722,137.48513180583595,-42.16608712725392)" id="a17" display="none" />
 <image xlink:href="https://www.jma.go.jp/bosai/rain/const/map/border_a18.png" x="0" y="0" width="940" height="783" preserveAspectRatio="none" xlink:title="image"  transform="matrix(0.007286604803273156,-9.462448193662357e-18,4.731224096831178e-18,0.005745171964887978,137.06286485120782,-40.24906207332209)" id="a18" display="none" />
 <image xlink:href="https://www.jma.go.jp/bosai/rain/const/map/border_a19.png" x="0" y="0" width="940" height="783" preserveAspectRatio="none" xlink:title="image"  transform="matrix(0.006974219551997149,9.879805623296764e-18,-3.9519222493187056e-17,0.005735564223826806,135.09956008981794,-36.83087004629846)" id="a19" display="none" />
</g>

</svg>
